<?xml version="1.0" encoding="UTF-8"?>
<svg width="220" height="80" viewBox="0 0 220 80" xmlns="http://www.w3.org/2000/svg" role="img" aria-labelledby="title desc">
  <title id="title">SP Águas</title>
  <desc id="desc">Logotipo da Agência de Águas do Estado de São Paulo</desc>
  <g fill="none" fill-rule="evenodd">
    <g fill="#F8FAFC">
      <path d="M10.6 61h19.4c8.1 0 12.6-4 12.6-10.9 0-5-2.8-8.3-7.5-9.6 3.8-1.4 6-4.5 6-8.8 0-6.4-4.3-10.4-12.1-10.4H10.6V61Zm11.6-27.5v-8.6h7c3.4 0 5.4 1.6 5.4 4.3 0 2.8-2 4.3-5.4 4.3h-7Zm0 17.2v-8.9h7.9c3.8 0 5.9 1.8 5.9 4.5 0 3-2.1 4.4-5.9 4.4h-7.9Z"/>
      <path d="M54.4 61h11.4l3-8.3h15.4l3 8.3h12L83.7 21.3H69.8L54.4 61Zm16.8-17.5 5-13.7 4.9 13.7h-9.9Z"/>
      <path d="M109.4 61h11.7l2.4-6.8h18.2l2.4 6.8h12.2l-18-39.6h-11.5L109.4 61Zm17.4-16.7 6.1-16.8 6.1 16.8h-12.2Z"/>
      <path d="M170 61h11.6V44.4l13.6 16.6h13.4l-15.6-18.6 14.4-21.1h-13.1l-9.6 14.3-3.1-3.9V21.3H170z"/>
      <text font-family="Montserrat, 'Arial Black', sans-serif" font-size="9" font-weight="600">
        <tspan x="12" y="72">AGÊNCIA DE ÁGUAS DO ESTADO DE SÃO PAULO</tspan>
      </text>
    </g>
    <g fill="#E0EFFF">
      <path d="M197 13c10.7 0 18.9-3.2 23-6.1-3.7 6.7-13.6 14.4-31.4 14.4-6.2 0-12.4-.8-17.4-2.3 5-4.4 13.5-6 25.8-6Z" />
      <path d="M202.6 23.1c10.9 0 19.1-3.3 23.3-6.3-3.7 6.8-13.7 14.6-31.7 14.6-6.3 0-12.5-.8-17.6-2.4 5-4.4 13.6-5.9 26-5.9Z" />
      <path d="M208 33c10.7 0 18.9-3.2 23-6.2-3.7 6.9-13.6 14.7-31.4 14.7-6.1 0-12.3-.9-17.3-2.4 5-4.4 13.5-6.1 25.7-6.1Z" />
    </g>
  </g>
</svg>
